<svg width="171" height="44" viewBox="0 0 171 44" fill="none" xmlns="http://www.w3.org/2000/svg">
<g filter="url(#filter0_d_134_246)">
<path d="M4.41406 13.0391L4.64844 1.55469H30.2422L30.4766 13.0156H29.1875C28.9688 11.8125 28.7734 10.8437 28.6016 10.1094C28.4453 9.375 28.25 8.60156 28.0156 7.78906C27.7812 6.97656 27.5391 6.34375 27.2891 5.89062C27.0391 5.4375 26.7344 4.98437 26.375 4.53125C26.0156 4.07813 25.6016 3.75 25.1328 3.54688C24.6797 3.32813 24.1484 3.15625 23.5391 3.03125C22.9297 2.89062 22.2266 2.82031 21.4297 2.82031C21.3672 2.82031 21.2344 2.82812 21.0312 2.84375C20.8438 2.84375 20.6719 2.84375 20.5156 2.84375V33.7109L24.1484 33.9453V35H10.9297V33.9453L14.5156 33.7109L14.375 2.86719C14.2188 2.86719 14.0391 2.86719 13.8359 2.86719C13.6484 2.85156 13.5234 2.84375 13.4609 2.84375C12.7578 2.84375 12.1328 2.88281 11.5859 2.96094C11.0391 3.03906 10.5391 3.1875 10.0859 3.40625C9.64844 3.625 9.26562 3.85937 8.9375 4.10938C8.60938 4.35938 8.30469 4.71875 8.02344 5.1875C7.74219 5.65625 7.5 6.10937 7.29688 6.54688C7.10938 6.98438 6.90625 7.58594 6.6875 8.35156C6.48438 9.10156 6.15625 10.6641 5.70312 13.0391H4.41406ZM33.5938 35V33.9453L37.2031 33.7109V2.84375L33.5938 2.60938V1.55469H46.0859C47.8203 1.55469 49.3828 1.70312 50.7734 2C52.1797 2.29688 53.4297 2.76563 54.5234 3.40625C55.6328 4.04687 56.4844 4.91406 57.0781 6.00781C57.6875 7.08594 57.9922 8.36719 57.9922 9.85156C57.9922 12.5234 57.0938 14.6094 55.2969 16.1094C53.5 17.5938 51.0703 18.5547 48.0078 18.9922V19.0391C49.3203 19.0547 50.4531 19.2656 51.4062 19.6719C52.375 20.0781 53.1406 20.6016 53.7031 21.2422C54.2812 21.8672 54.8281 22.6797 55.3438 23.6797C55.6875 24.3672 56.1719 25.4219 56.7969 26.8438C57.4375 28.25 58.0703 29.5 58.6953 30.5938C59.1953 31.4844 59.7188 32.1719 60.2656 32.6562C60.8125 33.1406 61.2734 33.4375 61.6484 33.5469C62.0234 33.6562 62.4531 33.7109 62.9375 33.7109V35H59.0469C57.8594 35 56.9219 34.9297 56.2344 34.7891C55.5469 34.6328 54.8594 34.2734 54.1719 33.7109C53.5 33.1484 52.8984 32.375 52.3672 31.3906C51.8359 30.3906 50.9297 28.3125 49.6484 25.1562C49.4609 24.6875 49.1875 24.0859 48.8281 23.3516C48.4844 22.6016 48.1797 22.0391 47.9141 21.6641C47.6641 21.2734 47.3594 20.8672 47 20.4453C46.6562 20.0234 46.2969 19.7266 45.9219 19.5547C45.5625 19.3672 45.1797 19.2734 44.7734 19.2734C44.0859 19.2734 43.5625 19.2812 43.2031 19.2969V33.7109L46.8125 33.9453V35H33.5938ZM43.2031 17.9609C43.375 17.9766 43.6953 17.9844 44.1641 17.9844C46.9453 17.9844 48.8984 17.3125 50.0234 15.9688C51.1641 14.6094 51.7344 12.5859 51.7344 9.89844C51.7344 8.55469 51.5703 7.41406 51.2422 6.47656C50.9297 5.53906 50.4766 4.8125 49.8828 4.29688C49.2891 3.78125 48.6328 3.41406 47.9141 3.19531C47.1953 2.97656 46.375 2.86719 45.4531 2.86719C44.8438 2.86719 44.0938 2.92969 43.2031 3.05469V17.9609ZM63.8281 35V33.9453L67.4375 33.7109V2.84375L63.8281 2.60938V1.55469H77.0469V2.60938L73.4375 2.84375V33.7109L77.0469 33.9453V35H63.8281ZM80.7266 18.875C80.7266 17.1406 80.9141 15.4297 81.2891 13.7422C81.6641 12.0547 82.2578 10.4219 83.0703 8.84375C83.8984 7.26563 84.9062 5.88281 86.0938 4.69531C87.2812 3.49219 88.75 2.53125 90.5 1.8125C92.25 1.09375 94.1719 0.734375 96.2656 0.734375C98.7031 0.734375 100.852 1.40625 102.711 2.75C104.57 4.07813 105.5 5.65625 105.5 7.48438C105.5 8.40625 105.203 9.19531 104.609 9.85156C104.031 10.5078 103.234 10.8359 102.219 10.8359C101.25 10.8359 100.461 10.5391 99.8516 9.94531C99.2422 9.33594 98.9375 8.57031 98.9375 7.64844C98.9375 6.74219 99.2266 5.98438 99.8047 5.375C100.383 4.75 101.102 4.4375 101.961 4.4375C102.133 4.4375 102.258 4.44531 102.336 4.46094V4.36719C102.102 3.92969 101.469 3.4375 100.438 2.89062C99.4062 2.34375 98.1641 2.07031 96.7109 2.07031C93.8672 2.07031 91.5312 3.54688 89.7031 6.5C87.875 9.45312 86.9609 13.3516 86.9609 18.1953C86.9609 20.2734 87.1406 22.2422 87.5 24.1016C87.8594 25.9453 88.3906 27.625 89.0938 29.1406C89.8125 30.6562 90.7734 31.8672 91.9766 32.7734C93.1797 33.6641 94.5547 34.1094 96.1016 34.1094C98.3203 34.1094 100.25 33.4531 101.891 32.1406C103.547 30.8125 104.828 29.1172 105.734 27.0547L106.836 27.5703C104.602 33.0703 100.844 35.8203 95.5625 35.8203C93.2656 35.8203 91.2344 35.5 89.4688 34.8594C87.7031 34.2188 86.2734 33.375 85.1797 32.3281C84.1016 31.2656 83.2188 29.9844 82.5312 28.4844C81.8438 26.9844 81.3672 25.4609 81.1016 23.9141C80.8516 22.3672 80.7266 20.6875 80.7266 18.875ZM109.109 35V33.9453L112.719 33.7109V2.84375L109.109 2.60938V1.55469H132.195L132.43 11.0938H131.445C131.258 10.0313 131.055 9.13281 130.836 8.39844C130.633 7.64844 130.336 6.89844 129.945 6.14844C129.555 5.39844 129.094 4.80469 128.562 4.36719C128.047 3.91406 127.375 3.54688 126.547 3.26562C125.734 2.98438 124.789 2.84375 123.711 2.84375C122.383 2.84375 120.719 2.92187 118.719 3.07812V17C119.188 17.0469 120.039 17.0703 121.273 17.0703C122.914 17.0703 124.086 16.6719 124.789 15.875C125.492 15.0625 125.844 13.5938 125.844 11.4688H127.133V24.0547H125.844C125.844 21.9297 125.484 20.4531 124.766 19.625C124.062 18.7812 122.898 18.3594 121.273 18.3594C120.07 18.3594 119.219 18.3828 118.719 18.4297V33.4766C120.719 33.6328 122.703 33.7109 124.672 33.7109C125.594 33.7109 126.406 33.6406 127.109 33.5C127.812 33.3438 128.422 33.0938 128.938 32.75C129.453 32.4062 129.891 32.0234 130.25 31.6016C130.609 31.1641 130.922 30.6094 131.188 29.9375C131.469 29.2656 131.695 28.5938 131.867 27.9219C132.039 27.25 132.219 26.4219 132.406 25.4375H133.414L133.156 35H109.109ZM137.469 35V33.9453L141.078 33.7109V2.84375L137.469 2.60938V1.55469H149.961C151.695 1.55469 153.258 1.70312 154.648 2C156.055 2.29688 157.305 2.76563 158.398 3.40625C159.508 4.04687 160.359 4.91406 160.953 6.00781C161.562 7.08594 161.867 8.36719 161.867 9.85156C161.867 12.5234 160.969 14.6094 159.172 16.1094C157.375 17.5938 154.945 18.5547 151.883 18.9922V19.0391C153.195 19.0547 154.328 19.2656 155.281 19.6719C156.25 20.0781 157.016 20.6016 157.578 21.2422C158.156 21.8672 158.703 22.6797 159.219 23.6797C159.562 24.3672 160.047 25.4219 160.672 26.8438C161.312 28.25 161.945 29.5 162.57 30.5938C163.07 31.4844 163.594 32.1719 164.141 32.6562C164.688 33.1406 165.148 33.4375 165.523 33.5469C165.898 33.6562 166.328 33.7109 166.812 33.7109V35H162.922C161.734 35 160.797 34.9297 160.109 34.7891C159.422 34.6328 158.734 34.2734 158.047 33.7109C157.375 33.1484 156.773 32.375 156.242 31.3906C155.711 30.3906 154.805 28.3125 153.523 25.1562C153.336 24.6875 153.062 24.0859 152.703 23.3516C152.359 22.6016 152.055 22.0391 151.789 21.6641C151.539 21.2734 151.234 20.8672 150.875 20.4453C150.531 20.0234 150.172 19.7266 149.797 19.5547C149.438 19.3672 149.055 19.2734 148.648 19.2734C147.961 19.2734 147.438 19.2812 147.078 19.2969V33.7109L150.688 33.9453V35H137.469ZM147.078 17.9609C147.25 17.9766 147.57 17.9844 148.039 17.9844C150.82 17.9844 152.773 17.3125 153.898 15.9688C155.039 14.6094 155.609 12.5859 155.609 9.89844C155.609 8.55469 155.445 7.41406 155.117 6.47656C154.805 5.53906 154.352 4.8125 153.758 4.29688C153.164 3.78125 152.508 3.41406 151.789 3.19531C151.07 2.97656 150.25 2.86719 149.328 2.86719C148.719 2.86719 147.969 2.92969 147.078 3.05469V17.9609Z" fill="black"/>
</g>
<defs>
<filter id="filter0_d_134_246" x="0.414062" y="0.734375" width="170.398" height="43.0859" filterUnits="userSpaceOnUse" color-interpolation-filters="sRGB">
<feFlood flood-opacity="0" result="BackgroundImageFix"/>
<feColorMatrix in="SourceAlpha" type="matrix" values="0 0 0 0 0 0 0 0 0 0 0 0 0 0 0 0 0 0 127 0" result="hardAlpha"/>
<feOffset dy="4"/>
<feGaussianBlur stdDeviation="2"/>
<feComposite in2="hardAlpha" operator="out"/>
<feColorMatrix type="matrix" values="0 0 0 0 0 0 0 0 0 0 0 0 0 0 0 0 0 0 0.25 0"/>
<feBlend mode="normal" in2="BackgroundImageFix" result="effect1_dropShadow_134_246"/>
<feBlend mode="normal" in="SourceGraphic" in2="effect1_dropShadow_134_246" result="shape"/>
</filter>
</defs>
</svg>
